<?xml version="1.0" standalone="no"?>
<!DOCTYPE svg PUBLIC "-//W3C//DTD SVG 20010904//EN"
 "http://www.w3.org/TR/2001/REC-SVG-20010904/DTD/svg10.dtd">
<svg version="1.0" xmlns="http://www.w3.org/2000/svg"
 width="2000.000000pt" height="2000.000000pt" viewBox="0 0 2000.000000 2000.000000"
 preserveAspectRatio="xMidYMid meet">

<g transform="translate(0.000000,2000.000000) scale(0.100000,-0.100000)"
fill="#000000" stroke="none">
<path d="M4905 18140 c-42 -22 -129 -71 -193 -109 -64 -38 -279 -162 -477
-276 -198 -114 -376 -216 -395 -227 -19 -11 -161 -93 -315 -182 -154 -89 -321
-186 -371 -214 -51 -29 -97 -58 -103 -66 -8 -9 -11 -70 -9 -194 l3 -180 77 45
76 44 161 -93 161 -93 0 -81 c0 -96 11 -115 90 -158 35 -19 62 -27 83 -24 20
2 407 220 976 548 719 415 946 551 957 572 19 36 20 311 1 348 -9 17 -104 78
-309 197 -164 94 -306 174 -317 178 -12 3 -47 -9 -96 -35z"/>
<path d="M9823 17265 c-73 -20 -127 -49 -181 -98 -43 -40 -92 -124 -92 -159 0
-15 -3 -15 -31 -1 -39 19 -100 5 -124 -30 -15 -21 -14 -23 45 -52 33 -16 60
-32 60 -35 -1 -3 -20 -14 -43 -25 -65 -32 -79 -68 -74 -190 4 -87 19 -168 42
-227 5 -12 2 -18 -8 -18 -24 0 -79 -51 -73 -67 3 -8 2 -11 -4 -8 -10 6 -30
-57 -30 -95 1 -37 43 -133 79 -178 32 -41 101 -82 138 -82 16 0 22 -10 32 -54
16 -71 47 -116 96 -141 l40 -20 -3 -65 c-2 -36 0 -89 3 -118 l6 -52 112 -85
c62 -46 117 -88 122 -92 6 -5 42 -32 80 -61 39 -28 77 -57 85 -64 44 -38 112
-89 115 -86 7 8 35 323 35 399 l0 86 124 -5 c116 -4 127 -3 179 21 117 53 185
193 221 455 8 53 14 141 15 196 2 83 6 106 27 147 71 142 72 326 1 465 l-23
46 25 50 c19 40 26 70 28 137 2 47 0 91 -4 98 -6 9 -23 6 -68 -9 -103 -35
-236 -35 -483 1 -234 34 -383 39 -469 16z"/>
<path d="M5430 16570 c-580 -335 -1065 -621 -1078 -636 -19 -22 -22 -35 -20
-87 2 -41 8 -63 19 -70 12 -7 255 129 1070 598 580 335 1066 619 1081 633 33
30 41 62 30 122 -6 34 -12 46 -27 47 -11 2 -479 -262 -1075 -607z"/>
<path d="M6250 16577 c-146 -85 -341 -198 -435 -252 -174 -101 -332 -192 -815
-470 -151 -87 -283 -163 -293 -169 -32 -20 -49 -73 -42 -127 8 -57 25 -70 64
-47 14 8 134 77 266 153 239 137 617 356 875 505 74 43 250 144 390 225 140
80 265 157 278 171 37 42 28 165 -12 164 -6 0 -130 -69 -276 -153z"/>
<path d="M6470 16236 c-30 -18 -194 -114 -365 -212 -170 -98 -346 -199 -390
-224 -44 -26 -201 -117 -350 -202 -148 -86 -355 -205 -460 -265 -217 -125
-233 -142 -220 -232 8 -61 24 -68 78 -37 23 13 188 108 367 212 179 103 384
221 455 262 333 192 904 522 936 541 43 25 59 57 59 116 0 86 -22 95 -110 41z"/>
<path d="M6385 15716 c-216 -125 -462 -267 -685 -396 -102 -59 -306 -177 -455
-262 -541 -312 -508 -291 -529 -333 -25 -49 -13 -128 20 -133 12 -2 101 43
215 109 188 108 814 470 1089 629 74 43 225 130 334 193 121 69 204 124 212
138 14 25 19 106 8 133 -11 30 -48 16 -209 -78z"/>
<path d="M6964 15292 c-31 -21 -35 -51 -14 -111 26 -78 25 -97 -2 -104 -40
-11 -111 13 -268 90 -172 84 -209 91 -271 55 -38 -23 -73 -78 -82 -129 -9 -44
18 -136 53 -188 77 -112 235 -204 465 -270 150 -43 216 -74 310 -145 37 -28
68 -50 69 -48 21 44 130 189 166 221 l49 44 -40 39 c-23 21 -59 75 -81 118
-54 107 -88 157 -102 149 -6 -3 -8 -3 -4 2 11 11 -11 47 -24 39 -7 -4 -8 -3
-4 4 4 7 2 12 -3 12 -6 0 -10 3 -9 8 5 13 -54 82 -65 75 -6 -3 -7 -1 -3 5 8
13 -93 136 -115 139 -8 2 -19 0 -25 -5z"/>
<path d="M3475 14075 c-242 -140 -448 -264 -457 -276 -14 -17 -18 -40 -18
-108 0 -99 6 -127 27 -136 10 -3 191 96 471 257 524 303 487 270 475 421 -8
89 -9 92 -33 94 -17 2 -162 -77 -465 -252z"/>
<path d="M6615 14249 c-72 -43 -105 -68 -116 -92 -15 -30 -15 -58 3 -392 15
-260 24 -364 33 -374 11 -11 31 -4 125 49 61 35 118 72 126 84 8 12 14 45 14
81 0 79 -30 654 -36 683 -7 35 -39 27 -149 -39z"/>
<path d="M3565 13054 c-319 -185 -608 -352 -642 -371 -89 -49 -105 -72 -101
-146 2 -41 8 -63 19 -70 12 -7 76 25 280 143 145 84 354 205 464 268 456 262
561 325 584 347 42 41 38 165 -6 165 -10 0 -279 -152 -598 -336z"/>
<path d="M6675 13260 c-108 -64 -135 -89 -135 -126 0 -38 32 -30 139 32 118
69 141 89 141 126 0 42 -30 36 -145 -32z"/>
<path d="M6060 12904 c-52 -30 -107 -68 -122 -85 -29 -31 -37 -68 -15 -70 27
-3 44 5 144 63 104 61 140 98 127 132 -10 25 -33 18 -134 -40z"/>
<path d="M3940 12772 c-129 -76 -421 -245 -648 -377 -254 -146 -420 -248 -430
-264 -11 -16 -16 -43 -15 -78 2 -61 7 -73 31 -73 10 0 153 78 317 173 165 95
459 265 654 377 319 184 355 208 369 240 20 48 6 134 -23 137 -11 1 -126 -60
-255 -135z"/>
<path d="M10457 12579 c-98 -26 -326 -59 -404 -59 l-33 0 0 -54 0 -54 -66 -7
c-116 -13 -449 1 -554 23 -101 21 -202 53 -261 83 l-36 18 -6 -492 c-4 -271
-10 -778 -13 -1127 l-6 -635 -39 -145 c-71 -264 -74 -299 -73 -720 0 -206 6
-483 13 -615 29 -583 53 -970 61 -980 17 -20 15 -70 -2 -85 -22 -19 -67 -175
-75 -256 -7 -76 4 -112 64 -200 74 -110 104 -184 114 -277 5 -45 14 -100 20
-122 23 -88 107 -171 202 -201 67 -21 276 -30 347 -15 71 15 169 60 180 82 6
10 10 46 10 81 0 71 -7 86 -80 163 -80 84 -199 244 -234 314 -47 93 -84 199
-112 320 -14 64 -29 108 -39 113 -20 12 -19 58 0 72 18 13 12 -17 145 815 114
712 190 1212 230 1506 40 299 85 598 170 1140 89 564 86 545 91 549 5 6 283
-1513 283 -1544 -1 -14 -9 -68 -18 -120 -23 -128 -32 -420 -17 -546 35 -287
228 -1392 248 -1415 17 -20 17 -68 -1 -88 -19 -23 -33 -68 -66 -218 -48 -212
-38 -277 44 -314 51 -22 226 -43 305 -36 72 6 134 -11 273 -73 167 -76 321
-102 477 -80 161 22 251 78 251 156 0 52 -28 73 -195 143 -430 181 -484 210
-607 329 -90 87 -107 120 -73 146 12 9 16 138 25 856 16 1190 15 1564 -4 1960
-8 190 -27 597 -41 905 -14 308 -28 579 -31 602 l-5 41 -52 -23 c-52 -24 -201
-70 -247 -76 l-25 -4 -3 98 c-2 69 -6 97 -15 96 -7 -1 -60 -15 -120 -30z"/>
<path d="M5420 12532 c-115 -67 -148 -101 -134 -136 10 -26 30 -19 140 45 104
61 144 97 144 129 0 14 -19 30 -33 30 -1 0 -54 -31 -117 -68z"/>
<path d="M16065 12551 c-55 -10 -138 -28 -185 -39 -150 -36 -237 -45 -361 -37
l-116 7 -28 -33 c-26 -31 -27 -38 -23 -109 8 -128 75 -223 230 -326 37 -25 69
-46 69 -47 1 -1 5 -69 8 -152 5 -110 11 -158 24 -181 24 -46 44 -49 63 -11 38
75 98 117 166 117 93 0 158 -72 158 -176 0 -76 -49 -166 -115 -211 -42 -30
-56 -34 -97 -31 l-48 3 0 -46 c0 -102 57 -215 139 -275 86 -63 222 -94 326
-75 230 43 438 270 569 623 118 318 99 540 -54 639 -44 28 -47 34 -59 93 -7
34 -23 80 -36 102 -13 21 -28 48 -33 59 -17 36 -46 52 -152 84 -138 43 -295
50 -445 22z"/>
<path d="M11403 12434 c-60 -46 -143 -77 -225 -82 -43 -2 -78 -6 -78 -7 0 -19
78 -183 85 -178 4 5 5 3 2 -4 -9 -15 96 -226 107 -216 5 4 6 3 2 -4 -24 -42
216 -346 261 -329 8 3 11 2 8 -4 -6 -9 42 -25 106 -36 44 -7 182 20 222 44 16
9 36 29 44 43 15 25 15 30 -6 70 -13 24 -59 81 -103 128 -44 47 -97 110 -117
140 -20 31 -40 60 -46 64 -5 5 4 5 20 1 17 -4 38 -7 47 -8 9 0 14 -4 12 -8 -5
-8 61 -28 97 -28 29 0 79 34 79 53 0 7 -16 21 -35 32 -20 10 -75 51 -123 91
-48 40 -114 88 -147 105 -91 49 -145 90 -164 126 l-16 32 -32 -25z"/>
<path d="M3790 12184 c-223 -130 -454 -264 -515 -299 -420 -241 -410 -232
-401 -320 3 -27 6 -53 6 -56 0 -4 7 -10 16 -13 11 -4 80 30 193 95 97 57 230
134 296 172 202 117 309 179 580 335 293 168 298 173 286 267 -5 44 -9 50 -31
52 -17 2 -153 -72 -430 -233z"/>
<path d="M4800 12174 c-117 -68 -140 -89 -140 -126 0 -41 24 -37 137 28 109
63 143 94 143 130 0 38 -34 30 -140 -32z"/>
<path d="M3655 11604 c-319 -185 -613 -355 -654 -378 -43 -24 -79 -52 -87 -68
-27 -51 -13 -148 21 -148 7 0 136 71 287 158 150 87 440 254 643 371 204 117
380 224 393 237 17 20 22 37 22 79 0 65 -7 85 -29 85 -9 0 -278 -151 -596
-336z"/>
<path d="M5849 11745 l-146 -85 13 -67 c18 -90 514 -2684 517 -2702 1 -10
-272 -174 -778 -467 -429 -249 -783 -453 -787 -453 -5 -1 -8 694 -8 1543 l0
1544 -164 -94 -163 -94 0 -2155 0 -2156 59 -35 c86 -52 119 -54 198 -7 l65 39
3 566 c2 513 4 567 18 572 9 4 89 49 178 100 89 52 260 151 381 221 249 143
382 221 740 428 138 79 264 151 281 160 l30 16 78 -407 c42 -224 79 -414 82
-422 5 -20 110 -80 151 -87 22 -4 48 3 88 23 96 49 96 6 5 480 -45 230 -108
561 -141 734 -33 173 -93 488 -134 700 -41 212 -151 788 -245 1280 -94 492
-172 898 -173 902 -1 4 -68 -31 -148 -77z"/>
<path d="M13385 11446 c-80 -37 -120 -90 -127 -170 -3 -25 -13 -36 -60 -63
-62 -36 -83 -63 -73 -93 6 -19 11 -18 82 20 42 22 84 40 94 40 37 0 30 -23
-20 -67 -53 -46 -59 -62 -38 -100 12 -21 16 -19 262 107 138 71 251 136 253
144 2 8 -2 24 -8 35 -12 23 -45 27 -100 11 -39 -11 -57 -1 -43 25 6 9 39 33
75 54 59 32 65 38 57 59 -11 29 -33 28 -97 -4 l-52 -26 -31 26 c-40 34 -105
35 -174 2z"/>
<path d="M2980 10088 c-96 -54 -178 -103 -183 -107 -4 -4 -62 -248 -128 -541
-135 -603 -131 -537 -37 -586 64 -33 100 -30 174 11 54 30 65 41 73 73 10 36
84 362 216 951 36 161 65 295 63 296 -2 2 -82 -42 -178 -97z"/>
<path d="M14757 8841 c-254 -258 -435 -393 -544 -408 -66 -9 -148 42 -286 176
l-68 66 -122 -1 c-241 -2 -382 -73 -453 -228 -45 -98 -54 -187 -188 -1891 -11
-149 -12 -184 -1 -201 20 -31 103 -81 158 -95 69 -17 180 -7 255 23 34 14 62
22 62 17 0 -17 202 -58 293 -59 4 0 7 -235 7 -522 0 -288 3 -533 6 -546 8 -27
113 -92 149 -92 36 0 141 65 149 92 3 13 6 235 6 495 l0 472 75 -44 c114 -67
183 -88 280 -83 94 5 150 28 209 85 86 83 91 117 50 313 -25 125 -43 178 -44
132 0 -37 -17 -59 -67 -89 -40 -23 -61 -28 -138 -31 -104 -4 -143 8 -205 64
-40 36 -40 37 -40 109 l0 74 46 -26 c88 -49 224 -42 356 18 l66 31 4 57 c2 31
4 57 3 57 0 1 -118 69 -262 152 -255 147 -263 150 -263 124 0 -15 5 -101 11
-191 12 -181 12 -181 -48 -181 l-33 0 0 219 0 219 -148 86 c-82 47 -152 86
-155 86 -4 0 -7 -137 -7 -305 l0 -306 -92 7 c-51 4 -94 7 -95 8 -1 1 27 138
62 306 36 168 64 311 65 317 0 7 -18 24 -39 37 -90 57 -118 204 -58 295 15 23
44 49 63 59 34 16 38 16 107 -10 40 -14 203 -74 362 -133 325 -119 806 -283
1025 -350 340 -103 499 -127 693 -107 62 7 122 15 135 18 l22 6 0 -210 0 -210
35 -22 c31 -19 39 -21 66 -10 57 24 59 31 52 272 l-6 219 34 12 c77 28 250
118 339 178 52 35 139 107 193 160 l97 97 0 -219 c0 -211 1 -219 22 -238 40
-38 72 -36 121 7 16 14 17 60 17 744 l-1 729 -22 -7 c-12 -4 -47 -19 -77 -33
l-55 -26 -3 -227 -2 -227 -80 -64 c-44 -35 -124 -87 -178 -115 -102 -53 -284
-119 -358 -129 l-44 -6 0 231 0 231 -72 -35 -73 -34 -5 -213 -5 -212 -95 -9
c-194 -18 -429 23 -557 96 -70 39 -158 120 -189 174 l-26 44 7 409 8 408 -24
7 c-41 11 -303 76 -308 76 -4 0 -81 -76 -174 -169z"/>
<path d="M17273 7227 l-153 -89 0 -977 c0 -874 1 -979 16 -999 20 -29 112 -82
142 -82 29 0 130 57 142 81 7 11 9 401 8 1086 l-3 1068 -152 -88z"/>
<path d="M15500 5315 c0 -682 4 -1083 10 -1095 12 -23 113 -80 141 -80 21 0
99 40 132 68 16 14 17 79 17 1089 0 590 -2 1073 -5 1073 -3 0 -23 -9 -45 -20
-60 -31 -128 -27 -195 11 l-55 31 0 -1077z"/>
<path d="M12121 6309 c-33 -17 -48 -33 -63 -66 -45 -103 21 -206 192 -301 84
-47 173 -71 315 -87 235 -27 293 -45 454 -143 124 -76 180 -95 281 -95 65 -1
96 4 132 20 53 24 133 94 154 134 25 50 17 147 -32 359 l-6 25 -13 -31 c-19
-45 -71 -81 -145 -100 -105 -27 -210 -2 -275 66 -26 27 -28 35 -26 97 1 38 4
83 8 101 l5 33 -188 -3 c-104 -2 -315 1 -469 5 -278 8 -280 8 -324 -14z"/>
</g>
</svg>
